# xmcd
#
# Track frame offsets:
#	150
#	17120
#	41293
#	54668
#	83983
#	106817
#	128097
#	148282
#	174766
#	198425
#	232984
#	262351
#
# Disc length: 3584 seconds
#
# Revision: 1
# Processed by: cddbd v1.5.2PL0 Copyright (c) Steve Scherf et al.
# Submitted via: audiograbber 1.83.01
#
DISCID=a20dfe0c
DTITLE=Telepathique - Last Time on Earth
DYEAR=2008
DGENRE=Electronica
TTITLE0=Deja-Vu
TTITLE1=Eu Gosto
TTITLE2=Love and Lust
TTITLE3=Telefunk
TTITLE4=Kabalah
TTITLE5=I'm Not the Man You Think I Am
TTITLE6=You Don't Know
TTITLE7=Sex, Drugs and Funk and Roll
TTITLE8=U R a Joke
TTITLE9=Wild
TTITLE10=Vida Inteira
TTITLE11=Data Track
EXTD=
EXTT0=
EXTT1=
EXTT2=
EXTT3=
EXTT4=
EXTT5=
EXTT6=
EXTT7=
EXTT8=
EXTT9=
EXTT10=
EXTT11=
PLAYORDER=
